# xmcd CD database file
#
# Track frame offsets:
#	150
#	116070
#	153526
#	244494
#
# Disc length: 4329 seconds
#
# Revision: 1
# Processed by: cddbd v1.5.2PL0 Copyright (c) Steve Scherf et al.
# Submitted via: CDex 1.51
#
DISCID=3310e704
DTITLE=Buck Clayton - Quadromania (3)
DYEAR=1990
DGENRE=Jazz
TTITLE0=Christopher Columbus
TTITLE1=Lean Baby
TTITLE2=The Huckle-Buck
TTITLE3=Robin's Nest
EXTD=YEAR: 1990
EXTT0=
EXTT1=
EXTT2=
EXTT3=
PLAYORDER=
